# xmcd
#
# Track frame offsets: 
#        150
#        14320
#        28507
#        37540
#        50807
#        70007
#        85832
#        107175
#        123762
#        139308
#        159018
#        174373
#        194694
#        207791
#
# Disc length: 3006 seconds
#
# Revision: 0
# Processed by: cddbd v1.5.2PL0 Copyright (c) Steve Scherf et al.
# Submitted via: ExactAudioCopy v0.99pb3
#
DISCID=af0bbc0e
DTITLE=Scigani - Bez Hamulcow
DYEAR=2007
DGENRE=Blues
TTITLE0=Niby razem
TTITLE1=B¹dz prawdziwa
TTITLE2=Bez hamulcow
TTITLE3=Zaczekaj zaczekaj
TTITLE4=Nie chce nie
TTITLE5=Przez ca³e zycie
TTITLE6=Duch podrozy
TTITLE7=Miekki jak mech
TTITLE8=Channel nr 5
TTITLE9=M³ody pies
TTITLE10=Chce siê zyæ
TTITLE11=Zawsze pod prad
TTITLE12=Pieski punkt widzenia
TTITLE13=Uwierz mi chocia¿ raz
EXTD=
EXTT0=
EXTT1=
EXTT2=
EXTT3=
EXTT4=
EXTT5=
EXTT6=
EXTT7=
EXTT8=
EXTT9=
EXTT10=
EXTT11=
EXTT12=
EXTT13=
PLAYORDER=
